<svg width="41" height="35" viewBox="0 0 41 35" fill="none" xmlns="http://www.w3.org/2000/svg">
<path d="M21.115 34.1797C21.036 34.2616 20.9414 34.3266 20.8368 34.3711C20.7323 34.4156 20.6198 34.4385 20.5063 34.4385C20.3927 34.4385 20.2803 34.4156 20.1758 34.3711C20.0712 34.3266 19.9766 34.2616 19.8976 34.1797L3.88164 17.6332C2.42415 16.1984 1.45964 14.3353 1.12783 12.3136C0.796016 10.2919 1.11414 8.21673 2.03611 6.38863V6.38863C2.74703 5.00353 3.77246 3.80555 5.02965 2.89139C6.28685 1.97723 7.74058 1.37249 9.27354 1.12597C10.8065 0.879457 12.3757 0.998075 13.8546 1.47225C15.3335 1.94643 16.6805 2.76288 17.7871 3.85571L20.5006 6.33935L23.2141 3.85571C24.3204 2.76264 25.6674 1.94598 27.1462 1.47166C28.625 0.997336 30.1943 0.878651 31.7272 1.12518C33.2602 1.37172 34.7139 1.97656 35.971 2.89088C37.2281 3.80519 38.2533 5.00336 38.9639 6.38863V6.38863C39.8856 8.21662 40.2038 10.2915 39.8724 12.3131C39.5411 14.3346 38.5773 16.1979 37.1207 17.6332L21.115 34.1797Z" stroke="#073937" stroke-linecap="round" stroke-linejoin="round"/>
<path d="M25.3862 15.0487C25.387 14.1645 25.1496 13.2966 24.699 12.5368C24.2485 11.777 23.6016 11.1536 22.8268 10.7326C22.052 10.3116 21.1783 10.1087 20.298 10.1453C19.4177 10.182 18.5637 10.4569 17.8264 10.9408C17.089 11.4248 16.4958 12.0998 16.1095 12.8945C15.7233 13.6892 15.5583 14.5739 15.6321 15.4549C15.7059 16.336 16.0157 17.1807 16.5288 17.8995C17.0419 18.6182 17.739 19.1844 18.5465 19.5381V23.8738C18.5465 24.3939 18.7524 24.8927 19.1189 25.2605C19.4853 25.6282 19.9823 25.8348 20.5006 25.8348C21.0188 25.8348 21.5158 25.6282 21.8823 25.2605C22.2487 24.8927 22.4546 24.3939 22.4546 23.8738V19.5381C23.3252 19.1568 24.0662 18.5291 24.5869 17.7317C25.1076 16.9344 25.3853 16.002 25.3862 15.0487V15.0487Z" stroke="#073937" stroke-linecap="round" stroke-linejoin="round"/>
</svg>
